####
#
#	OBJ File Generated by LightWave3D
#	LightWave3D OBJ Export v2.3
#
####
o rse_3letters_variant_b_S.obj
mtllib rse_3letters_variant_b_S.mtl
g default
v -0.45 -0.275 0.450837
v -0.45 -0.0916667 0.450837
v -0.083 -0.0916667 0.450837
v 0.268 -0.0916667 0.450837
v 0.45 -0.275 0.450837
v -0.268 0.0916667 0.450837
v 0.085 0.0916667 0.450837
v -0.45 0.275 0.450837
v 0.45 0.275 0.450837
v 0.45 0.0916667 0.450837
v -0.45 -0.275 -0.449163
v -0.45 -0.0916667 -0.449163
v -0.083 -0.0916667 -0.449163
v 0.268 -0.0916667 -0.449163
v 0.45 -0.275 -0.449163
v -0.268 0.0916667 -0.449163
v 0.085 0.0916667 -0.449163
v -0.45 0.275 -0.449163
v 0.45 0.275 -0.449163
v 0.45 0.0916667 -0.449163
v -0.1 0.275 0.450837
v -0.1 0.275 -0.449163
v 0.1 -0.275 0.450837
v 0.1 -0.275 -0.449163
vn -0.57735 0.57735 0.57735
vn -0.57735 0.57735 -0.57735
vn -0.57735 -0.57735 -0.57735
vn -0.57735 -0.57735 0.57735
vn -0.227427 0.093601 -0.969286
vn -0.57735 0.57735 -0.57735
vn -0.57735 0.57735 0.57735
vn -0.227427 0.093601 0.969286
vn 0 -0.707107 0.707107
vn 0 -0.707107 -0.707107
vn 0.562646 -0.234259 -0.792813
vn 0.562646 -0.234259 0.792813
vn 0.562646 -0.234259 -0.792813
vn 0.501138 0.498858 -0.707107
vn 0.501138 0.498858 0.707107
vn 0.562646 -0.234259 0.792813
vn -0.499779 -0.500217 0.70711
vn -0.499779 -0.500217 -0.70711
vn -0.227427 0.093601 -0.969286
vn -0.227427 0.093601 0.969286
vn 0.57735 -0.57735 -0.57735
vn 0.57735 0.57735 -0.57735
vn 0.57735 0.57735 0.57735
vn 0.57735 -0.57735 0.57735
vn 0.228579 -0.0948025 -0.968898
vn 0.57735 -0.57735 -0.57735
vn 0.57735 -0.57735 0.57735
vn 0.228579 -0.0948025 0.968898
vn 0.501138 0.498858 0.707107
vn 0.228579 -0.0948025 0.968898
vn -0.499779 -0.500217 0.70711
vn -0.227427 0.093601 0.969286
vn 0 0.707107 -0.707107
vn 0 0.707107 0.707107
vn 0.57735 0.57735 0.57735
vn 0.57735 0.57735 -0.57735
vn 0 0.707107 0.707107
vn 0 0.707107 -0.707107
vn -0.562646 0.234259 -0.792813
vn -0.562646 0.234259 0.792813
vn 0 -0.707107 -0.707107
vn 0 -0.707107 0.707107
vn -0.57735 -0.57735 0.57735
vn -0.57735 -0.57735 -0.57735
vn 0.57735 -0.57735 0.57735
vn 0.57735 0.57735 0.57735
vn 0 0.707107 0.707107
vn 0.228579 -0.0948025 0.968898
vn -0.57735 -0.57735 0.57735
vn 0 -0.707107 0.707107
vn -0.227427 0.093601 0.969286
vn -0.57735 0.57735 0.57735
vn 0 -0.707107 0.707107
vn 0.562646 -0.234259 0.792813
vn 0.501138 0.498858 0.707107
vn -0.227427 0.093601 0.969286
vn 0.57735 -0.57735 -0.57735
vn 0.228579 -0.0948025 -0.968898
vn 0 0.707107 -0.707107
vn 0.57735 0.57735 -0.57735
vn 0.228579 -0.0948025 -0.968898
vn -0.499779 -0.500217 -0.70711
vn -0.562646 0.234259 -0.792813
vn 0 0.707107 -0.707107
vn 0.562646 -0.234259 -0.792813
vn 0 -0.707107 -0.707107
vn -0.227427 0.093601 -0.969286
vn 0.501138 0.498858 -0.707107
vn -0.57735 -0.57735 -0.57735
vn -0.57735 0.57735 -0.57735
vn -0.227427 0.093601 -0.969286
vn 0 -0.707107 -0.707107
vn -0.499779 -0.500217 0.70711
vn 0.228579 -0.0948025 0.968898
vn 0 0.707107 0.707107
vn -0.562646 0.234259 0.792813
vn -0.499779 -0.500217 -0.70711
vn 0.228579 -0.0948025 -0.968898
vn 0.501138 0.498858 -0.707107
vn -0.227427 0.093601 -0.969286
vn 0.501138 0.498858 -0.707107
vn 0.228579 -0.0948025 -0.968898
vn 0.228579 -0.0948025 0.968898
vn 0.501138 0.498858 0.707107
vn -0.562646 0.234259 0.792813
vn -0.562646 0.234259 -0.792813
vn -0.499779 -0.500217 -0.70711
vn -0.499779 -0.500217 0.70711
g Default
usemtl Default
s off
f 2//1 12//2 11//3 1//4
f 13//5 12//6 2//7 3//8
f 23//9 24//10 15//11 5//12
f 15//13 14//14 4//15 5//16
f 6//17 16//18 13//19 3//20
f 20//21 19//22 9//23 10//24
f 17//25 20//26 10//27 7//28
f 4//29 7//30 6//31 3//32
f 22//33 21//34 9//35 19//36
f 21//37 22//38 18//39 8//40
f 24//41 23//42 1//43 11//44
f 10//45 9//46 21//47 7//48
f 1//49 23//50 3//51 2//52
f 23//53 5//54 4//55 3//56
f 20//57 17//58 22//59 19//60
f 17//61 16//62 18//63 22//64
f 15//65 24//66 13//67 14//68
f 11//69 12//70 13//71 24//72
f 6//73 7//74 21//75 8//76
f 16//77 17//78 14//79 13//80
f 14//81 17//82 7//83 4//84
f 8//85 18//86 16//87 6//88
