####
#
#	OBJ File Generated by LightWave3D
#	LightWave3D OBJ Export v2.3
#
####
o rse_3letters_variant_b_R.obj
mtllib rse_3letters_variant_b_R.mtl
g default
v 0.2 -0.275 0.450837
v 0.02 -0.0916667 0.450837
v 0.45 -0.275 0.450837
v -0.27 -0.275 0.450837
v -0.45 -0.275 0.450837
v -0.45 0.275 0.450837
v -0.27 0.275 0.450837
v -0.27 0.0916667 0.450837
v -0.27 -0.0916667 0.450837
v 0.45 0.275 0.450837
v 0.45 0.0916667 0.450837
v 0.09 0.0916667 0.450837
v 0.2 -0.275 -0.449163
v 0.02 -0.0916667 -0.449163
v 0.45 -0.275 -0.449163
v -0.27 -0.275 -0.449163
v -0.45 -0.275 -0.449163
v -0.45 0.275 -0.449163
v -0.27 0.275 -0.449163
v -0.27 0.0916667 -0.449163
v -0.27 -0.0916667 -0.449163
v 0.45 0.275 -0.449163
v 0.45 0.0916667 -0.449163
v 0.09 0.0916667 -0.449163
vn -0.340133 -0.810616 0.476667
vn -0.340133 -0.810616 -0.476667
vn 0.56433 -0.236792 -0.790861
vn 0.56433 -0.236792 0.790861
vn -0.26229 -0.6251 0.735156
vn -0.26229 -0.6251 -0.735156
vn -0.340133 -0.810616 -0.476667
vn -0.340133 -0.810616 0.476667
vn 0.57735 -0.57735 -0.57735
vn 0.408248 -0.408248 -0.816497
vn 0.408248 -0.408248 0.816497
vn 0.57735 -0.57735 0.57735
vn -0.57735 -0.57735 0.57735
vn -0.57735 -0.57735 -0.57735
vn 0.57735 -0.57735 -0.57735
vn 0.57735 -0.57735 0.57735
vn -0.57735 0.57735 0.57735
vn -0.57735 0.57735 -0.57735
vn -0.57735 -0.57735 -0.57735
vn -0.57735 -0.57735 0.57735
vn 0 0.707107 -0.707107
vn -0.57735 0.57735 -0.57735
vn -0.57735 0.57735 0.57735
vn 0 0.707107 0.707107
vn 0.57735 0.57735 -0.57735
vn 0 0.707107 -0.707107
vn 0 0.707107 0.707107
vn 0.57735 0.57735 0.57735
vn 0.57735 -0.57735 -0.57735
vn 0.57735 0.57735 -0.57735
vn 0.57735 0.57735 0.57735
vn 0.57735 -0.57735 0.57735
vn 0.230316 -0.0966401 0.968305
vn 0.230316 -0.0966401 -0.968305
vn 0.57735 -0.57735 -0.57735
vn 0.57735 -0.57735 0.57735
vn 0.408248 -0.408248 0.816497
vn 0.408248 -0.408248 -0.816497
vn -0.26229 -0.6251 -0.735156
vn -0.26229 -0.6251 0.735156
vn 0.56433 -0.236792 0.790861
vn 0.56433 -0.236792 -0.790861
vn 0.230316 -0.0966401 -0.968305
vn 0.230316 -0.0966401 0.968305
vn 0.230316 -0.0966401 -0.968305
vn 0.56433 -0.236792 -0.790861
vn -0.340133 -0.810616 -0.476667
vn -0.26229 -0.6251 -0.735156
vn 0.408248 -0.408248 0.816497
vn 0 0 1
vn 0 0.707107 0.707107
vn -0.57735 0.57735 0.57735
vn -0.57735 -0.57735 0.57735
vn 0.57735 -0.57735 0.57735
vn -0.57735 -0.57735 -0.57735
vn -0.57735 0.57735 -0.57735
vn 0 0.707107 -0.707107
vn 0 0 -1
vn 0.408248 -0.408248 -0.816497
vn 0.57735 -0.57735 -0.57735
vn 0.230316 -0.0966401 0.968305
vn 0.57735 -0.57735 0.57735
vn 0.57735 0.57735 0.57735
vn 0 0.707107 0.707107
vn 0 0 1
vn 0 0.707107 -0.707107
vn 0.57735 0.57735 -0.57735
vn 0.57735 -0.57735 -0.57735
vn 0.230316 -0.0966401 -0.968305
vn 0 0 -1
vn -0.26229 -0.6251 0.735156
vn 0.230316 -0.0966401 0.968305
vn 0 0 1
vn 0.408248 -0.408248 0.816497
vn 0 0 -1
vn 0.230316 -0.0966401 -0.968305
vn -0.26229 -0.6251 -0.735156
vn 0.408248 -0.408248 -0.816497
vn -0.340133 -0.810616 0.476667
vn 0.56433 -0.236792 0.790861
vn 0.230316 -0.0966401 0.968305
vn -0.26229 -0.6251 0.735156
g Default
usemtl Default
s off
f 1//1 13//2 15//3 3//4
f 2//5 14//6 13//7 1//8
f 16//9 21//10 9//11 4//12
f 5//13 17//14 16//15 4//16
f 6//17 18//18 17//19 5//20
f 19//21 18//22 6//23 7//24
f 22//25 19//26 7//27 10//28
f 23//29 22//30 10//31 11//32
f 12//33 24//34 23//35 11//36
f 9//37 21//38 14//39 2//40
f 3//41 15//42 24//43 12//44
f 24//45 15//46 13//47 14//48
f 9//49 8//50 7//51 6//52 5//53 4//54
f 17//55 18//56 19//57 20//58 21//59 16//60
f 12//61 11//62 10//63 7//64 8//65
f 19//66 22//67 23//68 24//69 20//70
f 2//71 12//72 8//73 9//74
f 20//75 24//76 14//77 21//78
f 1//79 3//80 12//81 2//82
