# 3ds Max Wavefront OBJ Exporter v0.97b - (c)2007 guruware
# File Created: 07.12.2016 23:21:04

mtllib pyramid.mtl

#
# object Plane001
#

v  -20.000000000000 0.000000000000 20.000000000000
v  0.000000000000 0.000000000000 20.000000000000
v  20.000000000000 0.000000000000 20.000000000000
v  -20.000000000000 0.000000000000 -0.000000000000
v  20.000000000000 0.000000000000 -0.000000000000
v  -20.000000000000 0.000000000000 -20.000000000000
v  0.000000000000 0.000000000000 -20.000000000000
v  20.000000000000 0.000000000000 -20.000000000000
v  -13.657469749451 10.306274414063 13.657469749451
v  13.657469749451 10.306274414063 13.657469749451
v  -13.657469749451 10.306274414063 -13.657469749451
v  13.657469749451 10.306274414063 -13.657469749451
v  -8.335094451904 19.684219360352 8.335095405579
v  8.335094451904 19.684219360352 8.335095405579
v  -8.335094451904 19.684219360352 -8.335093498230
v  8.335094451904 19.684219360352 -8.335093498230
v  -0.000000156509 34.479217529297 0.000001279967
v  0.000000064828 27.405261993408 -5.063619613647
v  0.000000156510 -9.909904479980 -0.000000694504
v  -0.000000064828 27.405263900757 5.063620567322
# 20 vertices

vn 0.000000000000 1.000000000000 -0.000000000000
vn 0.000000000000 1.000000000000 -0.000000000000
vn 0.000000000000 1.000000000000 -0.000000000000
vn 0.000000000000 1.000000000000 -0.000000000000
vn 0.000000000000 1.000000000000 -0.000000000000
vn 0.000000000000 1.000000000000 -0.000000000000
vn 0.000000000000 1.000000000000 -0.000000000000
vn 0.000000000000 1.000000000000 -0.000000000000
vn 0.000000000000 1.000000000000 -0.000000000000
vn 0.000000000000 1.000000000000 -0.000000000000
vn 0.000000000000 1.000000000000 -0.000000000000
vn 0.000000000000 1.000000000000 -0.000000000000
vn 0.000000000000 1.000000000000 -0.000000000000
vn 0.000000000000 1.000000000000 -0.000000000000
vn 0.000000000000 1.000000000000 -0.000000000000
vn 0.000000000000 1.000000000000 -0.000000000000
vn -1.000000000000 -0.000000007052 -0.000000012803
vn -1.000000000000 -0.000000007052 -0.000000033860
vn -1.000000000000 -0.000000007052 -0.000000012803
vn -1.000000000000 -0.000000007052 0.000000008255
# 20 vertex normals

g Plane001
usemtl wire_088199225
f 2//1 3//2 5//3 8//4 7//5 6//6 4//7 1//8 
f 12//9 11//10 9//11 10//12 
f 16//13 15//14 13//15 14//16 
f 17//17 18//18 19//19 20//20 
# 4 polygons

