# 3ds Max Wavefront OBJ Exporter v0.97b - (c)2007 guruware
# File Created: 02.01.2016 18:31:51

mtllib logo_s.mtl

#
# object logo_s
#

v  0.450000047684 0.275000065565 0.450836896896
v  0.450000047684 0.091666765511 0.450836926699
v  0.449999928474 0.091666631401 -0.449163049459
v  0.449999928474 0.274999946356 -0.449163079262
v  0.083000063896 0.091666765511 0.450836986303
v  0.082999929786 0.091666631401 -0.449162989855
v  -0.449999928474 0.275000065565 0.450837016106
v  -0.099999934435 0.275000065565 0.450836986303
v  -0.100000068545 0.274999946356 -0.449162989855
v  -0.450000047684 0.274999946356 -0.449162960052
v  -0.268000066280 0.091666631401 -0.449162960052
v  -0.267999947071 0.091666765511 0.450837016106
v  0.268000066280 -0.091666631401 0.450836956501
v  0.267999947071 -0.091666765511 -0.449163019657
v  -0.449999928474 -0.091666631401 0.450837045908
v  -0.450000047684 -0.091666765511 -0.449162930250
v  -0.450000047684 -0.275000065565 -0.449162900448
v  -0.449999928474 -0.274999946356 0.450837075710
v  -0.084999933839 -0.091666631401 0.450836986303
v  -0.085000067949 -0.091666765511 -0.449162989855
v  0.099999934435 -0.275000065565 -0.449162989855
v  0.100000068545 -0.274999946356 0.450836986303
v  0.450000047684 -0.274999946356 0.450836956501
v  0.449999928474 -0.275000065565 -0.449163019657
# 24 vertices

vn 1.000000000000 -0.000000000000 -0.000000132455
vn 1.000000000000 -0.000000000000 -0.000000132455
vn 1.000000000000 -0.000000000000 -0.000000132455
vn 1.000000000000 -0.000000000000 -0.000000132455
vn 0.000000000000 -1.000000000000 0.000000149012
vn 0.000000000000 -1.000000000000 0.000000149012
vn 0.000000000000 -1.000000000000 0.000000149012
vn 0.000000000000 -1.000000000000 0.000000149012
vn -0.000000000000 1.000000000000 -0.000000132455
vn -0.000000000000 1.000000000000 -0.000000132455
vn -0.000000000000 1.000000000000 -0.000000132455
vn -0.000000000000 1.000000000000 -0.000000132455
vn -0.709682762623 -0.704521417618 0.000000196907
vn -0.709682703018 -0.704521417618 0.000000187318
vn -0.708717048168 -0.705492854118 0.000000194205
vn -0.708717048168 -0.705492854118 0.000000203813
vn 0.703900158405 0.710298955441 -0.000000201168
vn 0.706797301769 0.707416117191 -0.000000194237
vn 0.706797301769 0.707416117191 -0.000000203814
vn 0.703900098801 0.710299015045 -0.000000210732
vn -1.000000000000 0.000000000000 0.000000132455
vn -1.000000000000 0.000000000000 0.000000132455
vn -1.000000000000 0.000000000000 0.000000132455
vn -1.000000000000 0.000000000000 0.000000132455
vn -0.000000000000 1.000000000000 -0.000000149012
vn -0.000000000000 1.000000000000 -0.000000149012
vn -0.000000000000 1.000000000000 -0.000000149012
vn -0.000000000000 1.000000000000 -0.000000149012
vn 0.000000117999 0.000000048334 1.000000000000
vn 0.000000085025 0.000000043923 1.000000000000
vn 0.000000118177 0.000000049154 1.000000000000
vn 0.000000084778 0.000000044360 1.000000000000
vn 0.000000000000 -1.000000000000 0.000000132455
vn 0.000000000000 -1.000000000000 0.000000132455
vn 0.000000000000 -1.000000000000 0.000000132455
vn 0.000000000000 -1.000000000000 0.000000132455
vn 0.000000000000 -1.000000000000 0.000000132455
vn 0.000000000000 -1.000000000000 0.000000132455
vn 0.000000000000 -1.000000000000 0.000000132455
vn 0.000000000000 -1.000000000000 0.000000132455
vn -0.000000000000 1.000000000000 -0.000000132455
vn -0.000000000000 1.000000000000 -0.000000132455
vn -0.000000000000 1.000000000000 -0.000000132455
vn -0.000000000000 1.000000000000 -0.000000132455
vn 0.000000118177 0.000000049154 1.000000000000
vn 0.000000163300 0.000000162558 1.000000000000
vn 0.000000163080 0.000000162996 1.000000000000
vn 0.000000104037 0.000000104615 1.000000000000
vn 0.000000117999 0.000000048334 1.000000000000
vn 0.000000162410 0.000000162558 1.000000000000
vn 0.000000162454 0.000000162471 1.000000000000
vn 0.000000104406 0.000000104094 1.000000000000
vn 0.000000085025 0.000000043923 1.000000000000
vn 0.000000117999 0.000000048334 1.000000000000
vn 0.000000104406 0.000000104094 1.000000000000
vn 0.000000085149 0.000000084530 1.000000000000
vn -0.000000163080 -0.000000162996 -1.000000000000
vn -0.000000163300 -0.000000162558 -1.000000000000
vn -0.000000118177 -0.000000049154 -1.000000000000
vn -0.000000104037 -0.000000104615 -1.000000000000
vn -0.000000104037 -0.000000104615 -1.000000000000
vn -0.000000118177 -0.000000049154 -1.000000000000
vn -0.000000084778 -0.000000044360 -1.000000000000
vn -0.000000085149 -0.000000084530 -1.000000000000
vn -0.000000085025 -0.000000043923 -1.000000000000
vn -0.000000085150 -0.000000084530 -1.000000000000
vn -0.000000104406 -0.000000104094 -1.000000000000
vn -0.000000117999 -0.000000048334 -1.000000000000
vn -0.000000117999 -0.000000048334 -1.000000000000
vn -0.000000104406 -0.000000104094 -1.000000000000
vn -0.000000162454 -0.000000162471 -1.000000000000
vn -0.000000162410 -0.000000162558 -1.000000000000
vn 0.000000104037 0.000000104615 1.000000000000
vn 0.000000085150 0.000000084530 1.000000000000
vn 0.000000084778 0.000000044360 1.000000000000
vn 0.000000118177 0.000000049154 1.000000000000
vn -0.000000117999 -0.000000048334 -1.000000000000
vn -0.000000084778 -0.000000044360 -1.000000000000
vn -0.000000118177 -0.000000049154 -1.000000000000
vn -0.000000085025 -0.000000043923 -1.000000000000
vn -0.708717048168 -0.705492854118 0.000000203813
vn -0.708717048168 -0.705492854118 0.000000194205
vn -0.707750022411 -0.706462979317 0.000000201107
vn -0.707750022411 -0.706462979317 0.000000210734
vn 0.706797301769 0.707416117191 -0.000000194237
vn 0.709682703018 0.704521417618 -0.000000187318
vn 0.709682703018 0.704521417618 -0.000000196907
vn 0.706797301769 0.707416117191 -0.000000203814
# 88 vertex normals

g logo_s
usemtl logo_letter
s 1
f 1//1 2//2 3//3 4//4 
s 2
f 5//5 6//6 3//7 2//8 
f 7//9 8//10 9//11 10//12 
s 1
f 7//13 10//14 11//15 12//16 
f 5//17 13//18 14//19 6//20 
f 15//21 16//22 17//23 18//24 
s 2
f 19//25 20//26 16//27 15//28 
s 4
f 5//29 12//30 19//31 13//32 
s 2
f 17//33 21//34 22//35 18//36 
f 23//37 22//38 21//39 24//40 
f 4//41 9//42 8//43 1//44 
s 4
f 19//45 15//46 18//47 22//48 
f 5//49 2//50 1//51 8//52 
f 12//53 5//54 8//55 7//56 
f 17//57 16//58 20//59 21//60 
f 21//61 20//62 14//63 24//64 
f 11//65 10//66 9//67 6//68 
f 6//69 9//70 4//71 3//72 
f 22//73 23//74 13//75 19//76 
f 6//77 14//78 20//79 11//80 
s 1
f 12//81 11//82 20//83 19//84 
f 13//85 23//86 24//87 14//88 
# 22 polygons

