# 3ds Max Wavefront OBJ Exporter v0.97b - (c)2007 guruware
# File Created: 02.01.2016 11:03:39

mtllib logo_r.mtl

#
# object logo_r
#

v  0.449999988079 -0.275000005960 -0.449162989855
v  0.449999988079 -0.275000005960 0.450836986303
v  0.200000002980 -0.275000005960 0.450836986303
v  0.200000002980 -0.275000005960 -0.449162989855
v  0.019999999553 -0.091666698456 0.450836986303
v  0.019999999553 -0.091666698456 -0.449162989855
v  0.449999988079 0.091666698456 -0.449162989855
v  0.449999988079 0.091666698456 0.450836986303
v  0.090000003576 0.091666698456 0.450836986303
v  0.090000003576 0.091666698456 -0.449162989855
v  -0.270000010729 -0.091666698456 0.450836986303
v  -0.270000010729 -0.091666698456 -0.449162989855
v  -0.270000010729 0.091666698456 0.450836986303
v  -0.270000010729 0.091666698456 -0.449162989855
v  -0.270000010729 0.275000005960 0.450836986303
v  0.449999988079 0.275000005960 0.450836986303
v  0.449999988079 0.275000005960 -0.449162989855
v  -0.270000010729 0.275000005960 -0.449162989855
v  -0.270000010729 -0.275000005960 -0.449162989855
v  -0.270000010729 -0.275000005960 0.450836986303
v  -0.449999988079 -0.275000005960 0.450836986303
v  -0.449999988079 -0.275000005960 -0.449162989855
v  -0.449999988079 0.275000005960 0.450836986303
v  -0.449999988079 0.275000005960 -0.449162989855
# 24 vertices

vn 0.000000000000 -1.000000000000 -0.000000000000
vn 0.000000000000 -1.000000000000 -0.000000000000
vn 0.000000000000 -1.000000000000 -0.000000000000
vn 0.000000000000 -1.000000000000 -0.000000000000
vn -0.713563919067 -0.700590133667 -0.000000000000
vn -0.713563919067 -0.700590133667 -0.000000000000
vn -0.713563919067 -0.700590133667 -0.000000000000
vn -0.713563919067 -0.700590133667 -0.000000000000
vn 0.000000000000 -1.000000000000 -0.000000000000
vn 0.000000000000 -1.000000000000 -0.000000000000
vn 0.000000000000 -1.000000000000 -0.000000000000
vn 0.000000000000 -1.000000000000 -0.000000000000
vn 0.000000000000 -1.000000000000 -0.000000000000
vn 0.000000000000 -1.000000000000 -0.000000000000
vn 0.000000000000 -1.000000000000 -0.000000000000
vn 0.000000000000 -1.000000000000 -0.000000000000
vn 0.713564038277 0.700590014458 -0.000000000000
vn 0.713564038277 0.700590014458 -0.000000000000
vn 0.713564038277 0.700590014458 -0.000000000000
vn 0.713564038277 0.700590014458 -0.000000000000
vn 0.000000000000 0.000000000000 -1.000000000000
vn 0.000000000000 0.000000000000 -1.000000000000
vn 0.000000000000 0.000000000000 -1.000000000000
vn 0.000000000000 0.000000000000 -1.000000000000
vn 0.000000000000 0.000000000000 1.000000000000
vn 0.000000000000 0.000000000000 1.000000000000
vn 0.000000000000 0.000000000000 1.000000000000
vn 0.000000000000 0.000000000000 1.000000000000
vn 0.000000000000 0.000000000000 -1.000000000000
vn 0.000000000000 0.000000000000 -1.000000000000
vn 0.000000000000 0.000000000000 -1.000000000000
vn 0.000000000000 0.000000000000 -1.000000000000
vn 0.000000000000 0.000000000000 1.000000000000
vn 0.000000000000 0.000000000000 1.000000000000
vn 0.000000000000 0.000000000000 1.000000000000
vn 0.000000000000 0.000000000000 1.000000000000
vn 0.000000000000 1.000000000000 -0.000000000000
vn 0.000000000000 1.000000000000 -0.000000000000
vn 0.000000000000 1.000000000000 -0.000000000000
vn 0.000000000000 1.000000000000 -0.000000000000
vn 1.000000000000 0.000000000000 -0.000000000000
vn 1.000000000000 0.000000000000 -0.000000000000
vn 1.000000000000 0.000000000000 -0.000000000000
vn 1.000000000000 0.000000000000 -0.000000000000
vn 0.000000000000 0.000000000000 1.000000000000
vn 0.000000000000 0.000000000000 1.000000000000
vn 0.000000000000 0.000000000000 1.000000000000
vn 0.000000000000 0.000000000000 1.000000000000
vn 0.000000000000 0.000000000000 -1.000000000000
vn 0.000000000000 0.000000000000 -1.000000000000
vn 0.000000000000 0.000000000000 -1.000000000000
vn 0.000000000000 0.000000000000 -1.000000000000
vn 0.000000000000 -1.000000000000 -0.000000000000
vn 0.000000000000 -1.000000000000 -0.000000000000
vn 0.000000000000 -1.000000000000 -0.000000000000
vn 0.000000000000 -1.000000000000 -0.000000000000
vn -1.000000000000 0.000000000000 -0.000000000000
vn -1.000000000000 0.000000000000 -0.000000000000
vn -1.000000000000 0.000000000000 -0.000000000000
vn -1.000000000000 0.000000000000 -0.000000000000
vn 0.000000000000 1.000000000000 -0.000000000000
vn 0.000000000000 1.000000000000 -0.000000000000
vn 0.000000000000 1.000000000000 -0.000000000000
vn 0.000000000000 1.000000000000 -0.000000000000
vn 0.000000000000 0.000000000000 1.000000000000
vn 0.000000000000 0.000000000000 1.000000000000
vn 0.000000000000 0.000000000000 1.000000000000
vn 0.000000000000 0.000000000000 1.000000000000
vn 0.000000000000 0.000000000000 -1.000000000000
vn 0.000000000000 0.000000000000 -1.000000000000
vn 0.000000000000 0.000000000000 -1.000000000000
vn 0.000000000000 0.000000000000 -1.000000000000
vn 1.000000000000 0.000000000000 -0.000000000000
vn 1.000000000000 0.000000000000 -0.000000000000
vn 1.000000000000 0.000000000000 -0.000000000000
vn 1.000000000000 0.000000000000 -0.000000000000
# 76 vertex normals

g logo_r
usemtl logo_letter
s 1
f 1//1 2//2 3//3 4//4 
s 2
f 4//5 3//6 5//7 6//8 
f 7//9 8//10 9//11 10//12 
s 4
f 6//13 5//14 11//15 12//16 
f 10//17 9//18 2//19 1//20 
s 8
f 10//21 1//22 4//23 6//24 
f 5//25 9//26 13//27 11//28 
f 14//29 10//30 6//31 12//32 
f 3//33 2//34 9//35 5//36 
s 2
f 15//37 16//38 17//39 18//40 
s 1
f 16//41 8//42 7//43 17//44 
s 8
f 13//45 8//46 16//47 15//48 
f 14//49 18//50 17//51 7//52 
s 2
f 19//53 20//54 21//55 22//56 
s 1
f 22//57 21//58 23//59 24//60 
s 2
f 23//61 15//62 18//63 24//64 
s 8
f 20//65 15//66 23//67 21//68 
f 19//69 22//70 24//71 18//72 
s 1
f 12//73 11//74 20//75 19//76 
# 19 polygons

