# 3ds Max Wavefront OBJ Exporter v0.97b - (c)2007 guruware
# File Created: 30.11.2016 10:22:25

mtllib grid_cube.mtl

#
# object Default
#

v  1.000000000000 -1.000000000000 -0.000000029802
v  -1.000000000000 -1.000000000000 -0.000000029802
v  1.000000000000 1.000000000000 -0.000000029802
v  -1.000000000000 1.000000000000 -0.000000029802
v  1.000000000000 0.000000000000 -0.000000029802
v  0.000000000000 -1.000000000000 -0.000000029802
v  -1.000000000000 0.000000000000 -0.000000029802
v  0.000000000000 1.000000000000 -0.000000029802
v  1.000000000000 -0.500000000000 -0.000000029802
v  0.500000000000 -1.000000000000 -0.000000029802
v  -0.500000000000 -1.000000000000 -0.000000029802
v  -1.000000000000 -0.500000000000 -0.000000029802
v  -1.000000000000 0.500000000000 -0.000000029802
v  -0.500000000000 1.000000000000 -0.000000029802
v  0.500000000000 1.000000000000 -0.000000029802
v  1.000000000000 0.500000000000 -0.000000029802
v  0.500000000000 -0.500000000000 -0.000000029802
v  -0.500000000000 -0.500000000000 -0.000000029802
v  -0.500000000000 0.500000000000 -0.000000029802
v  0.500000000000 0.500000000000 -0.000000029802
# 20 vertices

vn 0.000000000000 0.000000000000 -1.000000000000
vn 0.000000000000 0.000000000000 -1.000000000000
vn 0.000000000000 0.000000000000 -1.000000000000
vn 0.000000000000 0.000000000000 -1.000000000000
vn 0.000000000000 0.000000000000 -1.000000000000
vn 0.000000000000 0.000000000000 -1.000000000000
vn 0.000000000000 0.000000000000 -1.000000000000
vn 0.000000000000 0.000000000000 -1.000000000000
vn 0.000000000000 0.000000000000 -1.000000000000
vn 0.000000000000 0.000000000000 -1.000000000000
vn 0.000000000000 0.000000000000 -1.000000000000
vn 0.000000000000 0.000000000000 -1.000000000000
vn 0.000000000000 0.000000000000 -1.000000000000
vn 0.000000000000 0.000000000000 -1.000000000000
vn 0.000000000000 0.000000000000 -1.000000000000
vn 0.000000000000 0.000000000000 -1.000000000000
vn 0.000000000000 0.000000000000 -1.000000000000
vn 0.000000000000 0.000000000000 -1.000000000000
vn 0.000000000000 0.000000000000 -1.000000000000
vn 0.000000000000 0.000000000000 -1.000000000000
vn 0.000000000000 0.000000000000 -1.000000000000
vn 0.000000000000 0.000000000000 -1.000000000000
vn 0.000000000000 0.000000000000 -1.000000000000
vn 0.000000000000 0.000000000000 -1.000000000000
vn 0.000000000000 0.000000000000 -1.000000000000
vn 0.000000000000 0.000000000000 -1.000000000000
vn 0.000000000000 0.000000000000 -1.000000000000
vn 0.000000000000 0.000000000000 -1.000000000000
vn 0.000000000000 0.000000000000 -1.000000000000
vn 0.000000000000 0.000000000000 -1.000000000000
vn 0.000000000000 0.000000000000 -1.000000000000
vn 0.000000000000 0.000000000000 -1.000000000000
vn 0.000000000000 0.000000000000 -1.000000000000
vn 0.000000000000 0.000000000000 -1.000000000000
vn 0.000000000000 0.000000000000 -1.000000000000
vn 0.000000000000 0.000000000000 -1.000000000000
# 36 vertex normals

g Default
usemtl _cubeDefault
f 9//1 1//2 10//3 17//4 
f 11//5 18//6 17//7 10//8 6//9 
f 20//10 16//11 5//12 9//13 17//14 
f 11//15 2//16 12//17 18//18 
f 13//19 19//20 18//21 12//22 7//23 
f 13//24 4//25 14//26 19//27 
f 15//28 20//29 19//30 14//31 8//32 
f 15//33 3//34 16//35 20//36 
# 8 polygons

